<?xml version="1.0" standalone="no"?>
<!DOCTYPE svg PUBLIC "-//W3C//DTD SVG 20010904//EN"
 "http://www.w3.org/TR/2001/REC-SVG-20010904/DTD/svg10.dtd">
<svg version="1.0" xmlns="http://www.w3.org/2000/svg"
 width="300.000000pt" height="300.000000pt" viewBox="0 0 300.000000 300.000000"
 preserveAspectRatio="xMidYMid meet">
<metadata>
Created by potrace 1.11, written by Peter Selinger 2001-2013
</metadata>
<g transform="translate(0.000000,300.000000) scale(0.100000,-0.100000)"
fill="#000000" stroke="none">
<path d="M1045 2632 c-108 -17 -291 -59 -400 -92 -105 -32 -294 -105 -318
-123 -13 -9 -21 -59 -38 -242 -46 -480 -17 -1031 62 -1188 94 -185 256 -328
547 -486 158 -85 253 -123 427 -170 230 -62 259 -63 457 -11 483 125 842 380
929 660 27 88 49 332 56 635 5 252 0 368 -34 654 l-16 143 -66 30 c-150 68
-435 150 -598 172 -43 6 -43 6 -43 -25 0 -32 0 -32 -42 -26 -43 6 -291 33
-380 41 -27 3 -48 2 -48 -3 0 -4 48 -13 107 -20 347 -40 707 -133 906 -232 31
-16 57 -33 57 -37 0 -4 7 -70 14 -147 33 -319 29 -702 -9 -970 -11 -79 -23
-117 -54 -178 -22 -44 -32 -72 -23 -65 10 8 7 0 -7 -20 -12 -17 -25 -32 -28
-32 -3 0 1 8 8 18 11 15 11 15 -1 4 -8 -7 -15 -19 -15 -27 0 -27 -127 -145
-225 -210 -52 -35 -134 -82 -181 -105 -79 -40 -85 -45 -81 -69 3 -14 9 -29 14
-32 11 -7 -124 -59 -242 -92 -153 -44 -240 -60 -296 -54 -67 7 -295 70 -271
75 9 2 17 12 17 23 0 10 6 19 13 19 6 1 -44 22 -113 49 -246 95 -415 195 -540
321 -192 192 -218 289 -227 828 -4 253 -2 351 12 503 l18 190 38 19 c155 79
458 170 718 216 58 10 99 20 93 22 -7 2 -12 15 -12 28 0 23 -3 24 -52 22 -29
-2 -89 -9 -133 -16z"/>
<path d="M1320 2524 c-173 -21 -341 -53 -479 -90 -136 -37 -381 -130 -381
-145 0 -5 -7 -82 -16 -171 -29 -293 -17 -792 23 -958 31 -127 96 -228 212
-327 182 -155 377 -249 671 -324 63 -16 136 -29 162 -29 100 0 403 92 558 170
202 101 381 259 442 390 45 94 54 133 69 295 27 269 7 933 -28 965 -12 11
-205 84 -298 113 -155 48 -346 86 -570 113 -144 17 -213 16 -365 -2z m165
-171 c-28 -73 -31 -291 -6 -357 6 -16 10 -30 8 -32 -2 -3 -47 16 -101 42 -62
29 -116 48 -151 51 l-55 6 0 -29 c0 -25 1 -26 13 -10 19 26 52 17 52 -14 0
-22 -4 -25 -40 -25 -34 0 -42 4 -53 28 -12 24 -11 31 2 52 8 13 25 26 36 30
23 7 123 -17 188 -45 25 -11 47 -18 50 -16 6 7 -6 68 -17 85 -20 31 -224 43
-288 16 -34 -14 -41 -14 -95 5 -32 11 -70 20 -86 21 -19 1 -14 4 18 10 25 5
62 16 83 25 34 16 40 16 88 1 79 -26 261 -17 280 14 11 18 23 78 17 85 -3 2
-27 -5 -54 -16 -73 -32 -162 -50 -189 -40 -36 14 -49 45 -33 78 11 23 20 27
53 27 36 0 40 -3 40 -25 0 -31 -31 -39 -51 -13 -14 17 -14 17 -12 -7 2 -19 10
-26 31 -28 33 -4 132 28 207 68 65 34 74 36 65 13z m118 -14 c133 -68 237 -89
237 -49 0 17 -3 18 -19 9 -24 -16 -51 -5 -51 20 0 38 71 43 96 6 21 -33 11
-73 -22 -85 -30 -12 -130 9 -202 40 -25 11 -47 18 -49 16 -10 -9 10 -76 27
-91 30 -27 215 -33 276 -10 43 16 48 16 82 1 20 -9 57 -20 82 -24 l45 -8 -50
-8 c-27 -4 -63 -15 -79 -23 -25 -13 -35 -13 -70 -2 -26 9 -81 13 -155 12 -129
-2 -144 -9 -157 -77 -6 -36 -5 -39 12 -31 140 58 220 71 253 41 25 -23 26 -44
5 -74 -12 -18 -24 -22 -52 -20 -32 3 -37 6 -37 28 0 31 33 40 52 14 12 -16 13
-16 13 9 0 24 -4 27 -35 27 -38 0 -131 -32 -213 -74 -28 -14 -53 -26 -55 -26
-2 0 2 24 10 53 8 28 14 97 14 152 0 55 -6 124 -14 153 -8 28 -12 52 -10 52 2
0 32 -14 66 -31z m-514 -495 c14 -14 18 -87 5 -91 -6 -2 -17 10 -24 27 -23 54
-91 70 -111 26 -20 -43 -4 -71 65 -114 74 -46 98 -77 98 -127 0 -84 -95 -141
-191 -115 -46 12 -61 33 -61 84 0 41 16 47 30 14 32 -77 117 -102 140 -43 15
39 -3 69 -72 116 -81 57 -107 103 -86 157 8 21 29 47 48 60 29 20 44 23 93 20
31 -2 61 -9 66 -14z m847 -144 c71 -206 73 -210 101 -221 44 -17 13 -29 -73
-29 -83 0 -103 9 -65 30 19 10 19 12 4 55 l-15 45 -53 0 c-51 0 -54 -2 -64
-31 -16 -46 -14 -66 9 -72 11 -3 20 -10 20 -16 0 -7 -26 -11 -70 -11 -71 0
-91 13 -46 30 25 9 27 13 122 265 37 97 49 118 68 112 5 -2 33 -72 62 -157z
m-1116 142 c0 -4 -10 -12 -22 -17 -22 -10 -23 -15 -26 -173 l-2 -162 25 -10
c50 -19 26 -30 -65 -30 -73 0 -90 3 -90 15 0 8 8 15 19 15 26 0 31 25 31 178
0 133 -8 172 -35 172 -8 0 -15 5 -15 10 0 6 37 10 90 10 50 0 90 -3 90 -8z
m524 -120 c28 -67 53 -119 56 -115 4 5 15 28 24 53 10 25 31 78 48 118 l30 72
64 0 c65 0 85 -13 39 -24 -25 -6 -25 -7 -25 -119 0 -159 9 -219 32 -225 10 -2
18 -11 18 -18 0 -11 -19 -14 -85 -14 -66 0 -85 3 -85 14 0 7 9 16 20 19 19 5
20 13 20 144 l-1 138 -53 -135 c-29 -74 -55 -143 -59 -152 -15 -42 -34 -12
-86 132 -30 83 -55 150 -57 150 -2 0 -4 -61 -4 -135 0 -135 0 -136 25 -145 46
-17 27 -30 -45 -30 -56 0 -70 3 -70 15 0 8 7 15 15 15 9 0 19 10 24 23 10 27
30 286 24 304 -3 7 -13 15 -24 18 -41 13 -17 26 43 23 l63 -3 49 -123z m826
120 c0 -5 -8 -13 -19 -18 -18 -9 -17 -13 16 -84 l35 -75 34 70 c40 83 39 82
14 90 -40 13 -18 25 45 25 36 0 65 -3 65 -7 0 -5 -12 -15 -28 -24 -17 -10 -43
-46 -70 -100 -41 -80 -43 -88 -40 -159 3 -68 5 -75 26 -80 52 -12 17 -25 -73
-28 -95 -3 -123 8 -71 27 29 12 36 29 36 90 0 57 -73 216 -114 248 -14 12 -26
24 -26 27 0 3 38 6 85 6 47 0 85 -4 85 -8z m-549 -473 c25 -25 17 -39 -9 -16
-38 35 -82 12 -82 -42 0 -30 43 -56 69 -41 28 14 27 38 -1 43 -17 3 -14 5 10
6 29 1 32 -2 32 -28 0 -27 -4 -30 -42 -36 -38 -7 -44 -5 -66 20 -27 32 -24 69
10 98 27 23 53 22 79 -4z m257 5 c19 -13 22 -24 20 -57 -2 -33 -9 -44 -30 -57
-25 -13 -31 -13 -55 0 -22 13 -29 24 -31 57 -2 33 1 44 20 57 12 9 29 16 38
16 9 0 26 -7 38 -16z m-961 -10 c3 -9 1 -24 -5 -34 -7 -12 -7 -21 0 -28 5 -5
8 -20 6 -33 -5 -25 -8 -20 -23 26 -2 9 -16 15 -34 15 -26 0 -30 -4 -34 -32 -2
-18 -5 -3 -5 35 l-2 67 45 0 c33 0 47 -5 52 -16z m81 9 c-30 -3 -38 -9 -38
-24 0 -15 7 -19 35 -19 19 0 35 -4 35 -10 0 -5 -16 -10 -35 -10 -28 0 -35 -4
-35 -19 0 -15 9 -20 40 -23 l39 -3 25 57 c14 32 30 58 34 58 12 0 52 -93 51
-117 0 -15 -2 -14 -11 5 -14 29 -63 30 -78 2 -9 -16 -21 -20 -65 -20 l-55 0 0
65 0 65 48 -2 c43 -1 44 -2 10 -5z m192 -48 l0 -55 35 0 c19 0 35 -4 35 -10 0
-5 -20 -10 -45 -10 l-45 0 0 65 c0 37 4 65 10 65 6 0 10 -25 10 -55z m189 28
l21 -28 21 28 c11 15 25 27 31 27 6 0 -1 -15 -16 -34 -15 -20 -26 -48 -26 -65
0 -17 -4 -31 -10 -31 -5 0 -10 14 -10 30 0 40 -37 90 -67 90 -21 0 -23 -4 -23
-61 0 -37 -4 -58 -10 -54 -5 3 -10 30 -10 60 0 48 -2 54 -22 58 -13 2 5 5 39
6 56 1 63 -1 82 -26z m378 -43 c1 -55 0 -60 -8 -32 -8 28 -14 32 -44 32 -32 0
-35 -2 -29 -24 3 -13 1 -27 -5 -30 -8 -5 -11 14 -11 59 l0 66 48 -3 47 -3 2
-65z m183 20 c0 -54 19 -76 52 -59 14 7 18 22 18 59 0 28 5 50 10 50 17 0 12
-92 -7 -112 -20 -22 -56 -23 -77 -2 -18 17 -23 114 -6 114 6 0 10 -22 10 -50z
m205 15 c0 -27 -3 -30 -40 -35 -34 -4 -40 -8 -37 -27 2 -12 -2 -24 -8 -28 -6
-4 -10 16 -10 60 l0 66 48 -3 c45 -3 47 -4 47 -33z m-748 -285 c6 -23 19 -26
27 -7 7 17 36 -21 36 -48 0 -12 -11 -32 -25 -45 -31 -29 -24 -40 19 -33 22 3
36 1 41 -8 6 -9 3 -11 -10 -5 -10 3 -26 4 -36 1 -16 -5 -15 -10 13 -54 39 -64
42 -130 7 -167 -41 -44 -123 -14 -93 34 16 25 56 22 70 -6 7 -14 14 -19 18
-13 4 5 -10 32 -30 58 -33 43 -36 52 -31 94 4 35 2 51 -9 59 -8 7 -14 9 -15 4
-6 -69 -17 -91 -50 -108 -26 -13 -43 -6 -19 9 18 11 -1 25 -26 19 -25 -7 -58
12 -48 27 3 5 14 9 25 9 11 0 19 7 19 16 0 11 6 15 20 11 27 -7 55 16 47 38
-6 14 -14 16 -45 11 -82 -14 -87 -13 -87 17 1 22 -4 27 -22 27 -14 0 -23 6
-23 15 0 14 6 16 52 19 9 1 23 9 31 20 22 30 56 12 79 -44 22 -53 40 -67 59
-44 9 11 8 18 -4 32 -13 14 -14 21 -5 30 9 9 7 13 -5 18 -9 3 -17 12 -17 20 0
22 31 17 37 -6z m263 6 c0 -8 -7 -17 -16 -20 -12 -5 -14 -9 -5 -20 9 -10 8
-16 -4 -26 -18 -15 -20 -36 -3 -46 13 -9 58 40 58 63 0 44 67 72 77 32 4 -12
11 -18 20 -15 21 8 65 -4 60 -17 -2 -6 -12 -14 -23 -17 -12 -3 -19 -14 -19
-30 0 -22 -4 -25 -30 -22 -93 9 -100 8 -103 -15 -3 -20 1 -23 33 -23 29 0 36
-3 31 -15 -4 -11 2 -15 20 -15 39 0 28 -35 -11 -36 -47 -2 -50 -3 -37 -16 22
-22 12 -29 -18 -13 -33 17 -50 49 -50 93 0 21 -3 23 -12 14 -7 -7 -13 -36 -13
-65 0 -45 -5 -59 -33 -95 -18 -23 -30 -47 -27 -53 5 -7 12 -2 19 13 14 28 54
31 70 6 28 -45 -53 -79 -93 -39 -36 36 -37 84 -3 154 32 64 33 77 2 77 -25 0
-35 -17 -20 -35 8 -10 9 -15 2 -15 -17 0 -24 18 -17 41 6 18 13 21 46 16 49
-6 56 3 24 33 -15 14 -25 35 -25 51 0 32 21 54 37 38 8 -8 14 -5 22 10 13 24
41 28 41 7z m-160 -186 c0 -5 -4 -10 -10 -10 -5 0 -10 5 -10 10 0 6 5 10 10
10 6 0 10 -4 10 -10z"/>
<path d="M1813 1676 l-21 -66 43 0 44 0 -18 53 c-10 28 -20 58 -22 65 -3 7
-14 -16 -26 -52z"/>
<path d="M1800 1349 c-25 -46 18 -102 60 -79 47 25 32 100 -20 100 -19 0 -33
-7 -40 -21z"/>
<path d="M830 1345 c0 -24 3 -26 33 -23 24 2 32 8 32 23 0 15 -8 21 -32 23
-30 3 -33 1 -33 -23z"/>
<path d="M1090 1351 c0 -5 -3 -16 -6 -25 -4 -11 0 -16 14 -16 15 0 19 5 15 20
-6 22 -23 38 -23 21z"/>
<path d="M1674 1348 c4 -28 46 -37 65 -14 18 22 5 36 -35 36 -29 0 -33 -3 -30
-22z"/>
<path d="M2064 1354 c3 -9 6 -20 6 -25 0 -14 46 -11 59 4 15 19 -5 37 -42 37
-22 0 -28 -4 -23 -16z"/>
<path d="M1416 872 c-4 -11 -2 -30 3 -43 10 -27 48 -65 57 -57 6 7 -19 69 -40
99 -14 20 -14 20 -20 1z"/>
<path d="M1573 859 c-12 -19 -25 -47 -29 -64 -7 -29 -7 -30 17 -14 28 19 49
67 40 93 -7 17 -10 15 -28 -15z"/>
</g>
</svg>
